<?xml version="1.0" encoding="utf-8"?>
<!-- Generator: Adobe Illustrator 23.0.0, SVG Export Plug-In . SVG Version: 6.00 Build 0)  -->
<svg version="1.1" id="Layer_1" xmlns:svg="http://www.w3.org/2000/svg"
	 xmlns="http://www.w3.org/2000/svg" xmlns:xlink="http://www.w3.org/1999/xlink" x="0px" y="0px" viewBox="0 0 300 77.3"
	 style="enable-background:new 0 0 300 77.3;" xml:space="preserve">
<style type="text/css">
	.st0{fill:#FFFFFF;}
</style>
<path class="st0" d="M292.6,0c-1.3,0-2.5,0.3-3.7,1c-1.1,0.7-2,1.6-2.7,2.7c-0.7,1.2-1,2.4-1,3.7c0,1.3,0.4,2.6,1,3.8
	c0.7,1.2,1.6,2.1,2.7,2.7c1.1,0.7,2.4,1,3.7,1c1.3,0,2.6-0.3,3.8-1c1.1-0.7,2-1.6,2.7-2.7c0.7-1.1,1-2.4,1-3.8c0-1.3-0.3-2.5-1-3.7
	c-0.7-1.1-1.6-2-2.7-2.7C295.2,0.3,293.9,0,292.6,0z M292.6,1.4c1.6,0,3,0.6,4.2,1.7c1.2,1.2,1.7,2.6,1.7,4.2c0,1.7-0.6,3.1-1.7,4.3
	c-1.2,1.2-2.5,1.7-4.2,1.7c-1.7,0-3-0.6-4.2-1.7c-1.2-1.2-1.7-2.6-1.7-4.3c0-1.6,0.6-3,1.7-4.2C289.6,2,290.9,1.4,292.6,1.4z
	 M289.3,3.4v7.9h1.9V8.2c0.1,0,0.2,0,0.3,0c0.3,0,0.5,0.2,0.8,0.4c0.3,0.3,0.7,1.2,1.5,2.7h2.4c-0.9-1.5-1.3-2.3-1.3-2.4
	c-0.2-0.4-0.4-0.6-0.6-0.8c-0.1-0.1-0.4-0.2-0.7-0.3c0.7-0.2,1.3-0.5,1.7-0.9c0.3-0.4,0.5-0.8,0.5-1.3c0-0.7-0.3-1.3-0.7-1.7
	c-0.5-0.4-1.2-0.6-2.2-0.6H289.3z M291.2,4.8h1c0.5,0,0.9,0.1,1.1,0.3c0.2,0.2,0.3,0.4,0.3,0.7c0,0.3-0.1,0.5-0.3,0.7
	c-0.2,0.2-0.7,0.3-1.2,0.3h-0.9V4.8z M25.3,13.4c-3.3,0-7,0.3-11,1c-4,0.6-7.5,1.4-10.3,2.2c-2.7,1.1-4,2.9-4,5.4
	c0,0.2,0.1,0.8,0.4,1.6c0.2,0.8,0.7,1.6,1.2,2.4c0.6,0.8,1.3,1.3,2.2,1.7c0.9,0.5,2.1,0.5,3.5,0.1c3.3-0.8,6.5-1.4,9.5-1.9
	c3-0.5,6-0.8,8.9-0.8c1.3,0.2,2.5,0.5,3.7,0.8c1.2,0.3,2.2,0.7,3,1.2c0.8,0.6,1.4,1.4,1.8,2.4c0.5,1.1,0.7,2.5,0.7,4.2v3.1
	c-8.4,0-14.5,0.5-18.4,1.5c-4.1,0.9-7.3,2.3-9.5,4.1C2.3,45.8,0,50.7,0,56.9C0,63,2.3,67.9,6.9,71.6c2.8,2.2,6.1,3.7,9.8,4.5
	c3.7,0.8,8,1.1,12.9,1.1c3.4,0,7.3-0.2,11.8-0.8c4.5-0.6,8.6-1.3,12.3-2.2c1.3-0.4,2.4-1.1,3.2-2.1c0.8-1,1.2-2.2,1.2-3.7V33.7
	c0-6.2-2.4-11.1-7-14.5c-3-2.3-6.7-3.9-10.8-4.6C36.2,13.8,31.2,13.4,25.3,13.4z M98.4,13.4c-5.4,0-10.3,0.4-14.8,1.2
	c-4.4,0.8-8.1,2.3-11,4.5c-4.6,3.4-7,8.3-7,14.5v23.2c0,6.1,2.4,10.9,7,14.7c3,2.3,6.6,3.8,10.8,4.5c4.2,0.7,9.2,1,14.9,1
	c1.5,0,3.2-0.1,5.1-0.3c1.9-0.1,3.8-0.4,5.7-0.7c1.9-0.3,3.8-0.6,5.7-1c1.9-0.4,3.5-0.7,5.1-1.1c2.6-1.1,3.9-3,3.9-5.6
	c0-0.1-0.1-0.7-0.3-1.7c-0.4-1.5-1.3-2.6-2.6-3.4c-1.4-0.8-2.8-0.9-4.3-0.5c-3.7,0.9-6.9,1.6-9.6,2c-2.7,0.4-5.6,0.6-8.8,0.6
	c-2.7,0-4.9-0.7-6.5-2c-0.7-0.4-1.4-1.2-1.9-2.3c-0.5-1.1-0.9-2.6-0.9-4.4V33.7c0.1-1.8,0.4-3.3,0.9-4.4c0.5-1,1.1-1.8,1.8-2.4
	c0.8-0.6,1.7-1,2.8-1.2c1.1-0.2,2.3-0.4,3.8-0.7c2.9,0,5.9,0.2,8.9,0.7c3,0.5,6.2,1.2,9.5,2c0.2,0.1,0.6,0.2,1.3,0.2
	c3,0,4.9-1.4,5.6-4.2c0.2-1,0.3-1.6,0.3-1.7c0-2.5-1.3-4.3-3.9-5.4c-1.6-0.4-3.1-0.7-4.3-1c-1.2-0.3-2.2-0.6-3.2-0.8
	C107.5,13.8,102.8,13.4,98.4,13.4z M160,13.4c-3.4,0-7.4,0.3-12,0.9c-4.5,0.6-8.6,1.3-12.3,2.1c-1.3,0.4-2.4,1.2-3.2,2.2
	c-0.8,1-1.2,2.2-1.2,3.6v46.4c0,1.7,0.5,3.2,1.7,4.3c1.1,1.1,2.5,1.7,4.1,1.7h11.6c1.6,0,3-0.6,4.2-1.7c1.2-1.2,1.7-2.6,1.7-4.2
	V26.1c2-0.7,3.9-1,5.8-1c1.7,0,2.8,0.2,3.3,0.7c1,0.6,1.7,1.7,2,3.2c0.4,1.5,0.5,3.1,0.5,4.7v34.8c0,1.7,0.5,3.2,1.7,4.3
	c1.1,1.1,2.5,1.7,4.1,1.7h11.6c1.6,0,3-0.6,4.1-1.8c1.1-1.2,1.6-2.6,1.6-4.1V26.1c1.1-0.3,2.2-0.6,3.2-0.8c1-0.2,1.9-0.3,2.7-0.3
	c2.3,0,3.9,0.7,4.6,2.1c0.8,1.4,1.1,3.6,1.1,6.5v34.8c0,1.6,0.6,3,1.7,4.2c1.2,1.2,2.5,1.7,4.1,1.7h11.6c1.6,0,3-0.6,4.1-1.8
	c1.1-1.2,1.7-2.6,1.7-4.1V33.7c0-6-2.3-10.9-6.8-14.5c-2.7-2.1-6-3.7-10-4.5c-3.9-0.8-8.1-1.2-12.7-1.2c-3.6,0-7,0.2-10,0.5
	c-3.1,0.3-6.2,0.8-9.4,1.4c-2.6-0.8-5-1.3-7-1.6C166.3,13.6,163.6,13.4,160,13.4z M260.4,13.4c-3.4,0-7.4,0.2-11.9,0.8
	c-4.5,0.6-8.6,1.3-12.3,2.2c-1.3,0.4-2.4,1.2-3.2,2.2c-0.8,1-1.1,2.2-1.1,3.6v34.7c0,6.1,2.3,10.9,6.9,14.7c3,2.3,6.7,3.8,10.9,4.5
	c4.2,0.7,9.2,1,14.9,1c1.5,0,3.2-0.1,5.1-0.3c1.9-0.2,3.8-0.4,5.7-0.7c1.9-0.3,3.8-0.6,5.7-1c1.9-0.4,3.5-0.7,5.1-1.1
	c2.6-1.1,3.9-3,3.9-5.6c0.1-0.2,0-0.6-0.3-1.4c-0.3-0.8-0.7-1.5-1.3-2.3c-0.6-0.7-1.4-1.4-2.4-1.8c-1-0.4-2-0.5-3.3-0.1
	c-3.7,0.9-6.9,1.6-9.6,2c-2.7,0.4-5.6,0.6-8.8,0.6c-2.7,0-4.9-0.7-6.5-2c-0.7-0.4-1.3-1.2-1.8-2.3c-0.6-1.1-0.9-2.6-0.9-4.4v-3.1
	c8.2,0,14.3-0.4,18.4-1.3c4.1-1.1,7.3-2.6,9.5-4.3c4.6-3.4,7-8.2,7-14.6c0-6.2-2.4-11.1-7-14.5c-2.8-2.2-6.1-3.7-9.8-4.5
	C269.5,13.9,265.3,13.4,260.4,13.4z M260.8,25.1c1.7,0,2.8,0.2,3.3,0.7c1.1,0.7,1.8,1.7,2.1,3.1c0.3,1.3,0.4,3,0.4,4.9
	c0,1.6-0.2,3.2-0.5,4.7c-0.4,1.6-1,2.6-2,3.2c-0.7,0.5-1.8,0.8-3.1,0.8c-1.9,0-3.9-0.3-6-1V26.1C257.1,25.4,259,25.1,260.8,25.1z
	 M28.6,48.3c2.1,0,4.2,0.4,6.2,1v15.4c-2,0.7-3.9,1-5.8,1c-2.3,0-3.8-0.7-4.6-2.1c-0.8-1.4-1.2-3.6-1.2-6.6
	c-0.1-2.6,0.3-4.8,1.2-6.5C25.4,48.8,26.7,48.1,28.6,48.3z"/>
</svg>
